<?xml version="1.0" encoding="UTF-8" standalone="no"?>
<svg
   version="1.1"
   x="0"
   y="0"
   width="98"
   height="158"
   viewBox="0, 0, 98, 158"
   id="svg111"
   sodipodi:docname="anime cartoon man slight smile.svg"
   inkscape:version="1.1-alpha (137f427, 2021-01-31)"
   xmlns:inkscape="http://www.inkscape.org/namespaces/inkscape"
   xmlns:sodipodi="http://sodipodi.sourceforge.net/DTD/sodipodi-0.dtd"
   xmlns="http://www.w3.org/2000/svg"
   xmlns:svg="http://www.w3.org/2000/svg">
  <defs
     id="defs115" />
  <sodipodi:namedview
     id="namedview113"
     pagecolor="#505050"
     bordercolor="#eeeeee"
     borderopacity="1"
     objecttolerance="10.0"
     gridtolerance="10.0"
     guidetolerance="10.0"
     inkscape:pageshadow="0"
     inkscape:pageopacity="0"
     inkscape:pagecheckerboard="0"
     showgrid="false"
     inkscape:zoom="3.5886076"
     inkscape:cx="49.462081"
     inkscape:cy="56.010582"
     inkscape:current-layer="Layer_1" />
  <g
     id="Layer_1">
    <path
       d="M94.448,139.425 L94.573,157.05 L78.646,157.05 L78.646,139.425 L92.202,136.574 L94.448,139.425"
       fill="#F8D2B5"
       id="path2" />
    <path
       d="M16.907,132.967 C16.907,132.967 19.823,137.635 19.657,140.051 L24.739,131.801 L25.028,135.485 C25.786,143.541 26.888,154.408 27.573,157.3 L82.073,157.3 C82.437,155.767 82.917,151.994 83.401,147.586 L83.573,144.8 C88.323,143.675 96.948,137.3 96.948,137.3 C96.948,137.3 96.073,123.175 95.323,116.3 C94.573,109.425 90.698,106.3 88.073,104.925 C83.319,102.435 67.44,98.544 67.44,98.544 C64.798,94.62 61.771,93.075 61.771,93.075 L47.729,92.773 C47.729,92.773 44.106,95.387 41.69,98.887 C41.69,98.887 31.323,100.738 28.073,102.05 L18.323,103.502 L16.907,132.967"
       fill="#9BD1C4"
       id="path4" />
    <path
       d="M45.688,148.772 C38.896,148.772 32.343,148.15 26.182,146.996 C26.686,151.653 27.194,155.7 27.573,157.3 L82.073,157.3 C82.437,155.767 82.917,151.994 83.401,147.586 L83.573,144.8 C88.323,143.675 96.948,137.3 96.948,137.3 C96.948,137.3 96.869,136.02 96.738,134.05 C84.732,143.024 66.331,148.772 45.688,148.772"
       fill="#79C5BB"
       id="path6" />
    <path
       d="M85.688,126.3 L83.761,144.206 C88.939,143.725 96.948,137.3 96.948,137.3 C96.948,137.3 96.073,123.175 95.323,116.3 C94.573,109.425 90.698,106.3 88.073,104.925 C86.497,104.1 83.697,103.121 80.66,102.18 C84.688,107.436 85.688,126.3 85.688,126.3"
       fill="#009D90"
       id="path8" />
    <path
       d="M24.786,132.392 L24.833,130.05 C24.833,130.05 26.097,107.436 30.017,101.415 C29.243,101.633 28.573,101.848 28.073,102.05 L18.323,103.502 L16.907,132.967 C16.907,132.967 19.823,137.635 19.657,140.051 L24.739,131.801 L24.786,132.392"
       fill="#009D90"
       id="path10" />
    <path
       d="M48.6,94.554 L48.823,92.426 L48.823,90.01 L60.534,89.471 L60.534,92.426 L60.745,94.426 L61.396,95.187 C65.329,98.401 54.679,103.502 54.679,103.502 C54.679,103.502 44.028,98.401 47.962,95.187 L48.6,94.554"
       fill="#F8D2B5"
       id="path12" />
    <path
       d="M49.065,90 L48.571,97.39 C48.571,97.39 56.755,97.308 60.144,93.623 L60.534,90.488 L49.065,90"
       fill="#DB9D88"
       id="path14" />
    <path
       d="M20.114,95.584 C20.114,95.584 23.833,96.512 25.77,99.418 C27.576,102.128 28.365,105.654 27.048,106.314 C25.871,106.903 24.065,105.808 24.065,105.808 L20.114,105.604 L15.567,96.888 L20.114,95.584"
       fill="#F8D2B5"
       id="path16" />
    <path
       d="M10.661,115.464 C10.661,115.464 0.602,132.837 0.602,139.462 C0.602,146.087 5.01,151.212 11.739,147.551 C14.077,146.28 17.068,142.357 19.506,138.699 L16.759,132.448 C18.559,126.448 20.198,119.302 20.198,119.302 C21.979,117.83 21.663,114.253 21.663,114.253 C21.663,114.253 23.833,113.634 24.606,111.464 C25.382,109.293 23.909,105.344 23.909,105.344 C24.298,102.788 22.593,98.449 19.726,95.351 C16.399,91.753 9.499,94.886 6.013,98.294 C3.446,100.805 7.601,109.574 9.97,114.024 L10.661,115.464"
       fill="#F8D2B5"
       id="path18" />
    <path
       d="M84.102,144.714 C84.102,144.714 93.063,140.508 94.772,139.425 L94.632,143.868 C94.632,143.868 88.903,149.025 83.106,150.623 L84.102,144.714"
       fill="#DB9D88"
       id="path20" />
    <path
       d="M51.948,103.738 L57.364,103.738 L57.364,122.988 L51.948,122.988 z"
       fill="#009D90"
       id="path22" />
    <path
       d="M57.364,103.738 L57.364,122.988 L51.948,122.988 L51.948,103.738"
       fill-opacity="0"
       stroke="#1A1919"
       stroke-width="1.2"
       stroke-linecap="round"
       stroke-linejoin="round"
       id="path24" />
    <path
       d="M47.962,95.187 C44.028,98.401 54.845,103.502 54.845,103.502 C54.845,103.502 51.909,111.646 47.349,112.101 C45.017,112.335 41.913,106.028 41.913,98.968 C41.913,98.968 45.721,93.964 46.525,93.415 C47.33,92.867 48.734,92.353 48.99,92.426 C49.246,92.5 48.905,94.8 48.905,94.8 L47.962,95.187"
       fill="#009D90"
       id="path26" />
    <path
       d="M61.396,95.187 C65.329,98.401 54.513,103.502 54.513,103.502 C54.513,103.502 57.448,111.646 62.009,112.101 C64.341,112.335 67.444,106.028 67.444,98.968 C67.444,98.968 66.269,96.668 65.685,95.974 C65.099,95.28 62.575,92.756 61.991,92.574 C61.405,92.391 60.106,91.988 60.032,92.426 C59.96,92.865 60.202,94.971 60.312,95.082 C60.421,95.192 61.442,95.06 61.442,95.06"
       fill="#009D90"
       id="path28" />
    <path
       d="M16.885,133.186 C16.885,133.186 19.468,137.129 19.506,138.699 L17.622,141.55 C17.622,141.55 16.372,137.833 15.539,137.16 L16.885,133.186"
       fill="#DB9D88"
       id="path30" />
    <path
       d="M87.387,48.924 C87.945,45.937 88.342,43.194 88.595,40.668 C88.316,34.192 70.383,25.959 52.931,26.3 C36.43,26.623 20.337,35.227 20.684,39.428 C20.997,43.211 20.692,43.207 22.181,48.918 L22.286,51.949 L87.266,51.828 L87.387,48.924"
       fill="#564137"
       id="path32" />
    <path
       d="M23.025,38.845 C23.025,38.845 21.938,42.752 23.505,49.041 L22.181,48.918 C22.181,48.918 19.854,42.261 20.477,40.323 L23.025,38.845"
       fill="#997B6F"
       id="path34" />
    <path
       d="M22.181,48.918 C22.181,48.918 21.335,46.381 20.679,42.549 C20.536,41.721 20.836,40.854 20.723,39.917 C20.577,38.717 39.931,30.175 50.368,25.925 C50.368,25.925 88.528,39.174 88.892,40.491 C88.58,43.06 88.089,45.86 87.387,48.924"
       fill-opacity="0"
       stroke="#1A1919"
       stroke-width="1.4"
       stroke-linecap="round"
       stroke-linejoin="round"
       id="path36" />
    <path
       d="M48.905,94.8 C42.905,98.05 54.573,103.502 54.573,103.502 C54.573,103.502 51.909,111.646 47.349,112.101 C45.017,112.335 41.913,106.028 41.913,98.968 M60.489,94.758 C65.614,98.425 54.729,103.502 54.729,103.502 C54.729,103.502 57.448,111.646 62.009,112.101 C64.341,112.335 67.444,106.028 67.444,98.968 M48.74,97.175 L49.24,92.426 M60.532,97.175 L60.032,92.426"
       fill-opacity="0"
       stroke="#1A1919"
       stroke-width="1.2"
       stroke-linecap="round"
       stroke-linejoin="round"
       id="path38" />
    <path
       d="M48.448,92.258 C48.448,92.258 44.155,94.592 41.69,98.887 C41.69,98.887 30.95,100.738 27.7,102.05 M61.265,92.324 C61.265,92.324 64.798,94.62 67.44,98.544 C67.44,98.544 83.319,102.435 88.073,104.925 C90.698,106.3 94.573,109.425 95.323,116.3 C96.073,123.175 96.948,137.3 96.948,137.3 C96.948,137.3 88.655,143.589 83.905,144.714 M85.448,126.3 C85.448,126.3 83.198,152.55 82.073,157.3 M24.198,126.3 C24.198,126.3 26.448,152.55 27.573,157.3 M94.448,139.425 L94.573,157.05 M11.438,116.656 C11.438,116.656 2.526,101.705 6.013,98.294 C9.499,94.886 16.399,91.753 19.726,95.351 C22.593,98.449 24.298,102.788 23.909,105.344 C23.909,105.344 25.382,109.293 24.606,111.464 C23.833,113.634 21.663,114.253 21.663,114.253 C21.663,114.253 22.138,117.605 20.198,119.302 C20.198,119.302 14.823,139.55 14.073,140.675 M19.261,113.091 C19.261,113.091 22.128,111.775 22.438,109.759 M20.655,112.706 C20.655,112.706 20.19,114.021 21.663,114.253 M16.472,107.436 C16.472,107.436 20.811,103.949 23.909,105.344 M14.071,102.556 C14.071,102.556 18.72,98.527 22.282,99.766 M11.823,98.994 C11.823,98.994 16.472,94.963 20.036,96.203 M20.114,95.584 C20.114,95.584 23.833,96.512 25.77,99.418 C27.576,102.128 28.365,105.654 27.048,106.314 C25.871,106.903 24.065,105.808 24.065,105.808 M10.903,115.867 C10.903,115.867 0.7,133.508 0.7,140.133 C0.7,146.758 5.01,151.212 11.739,147.551 C14.077,146.28 17.068,142.357 19.506,138.699 M16.907,132.967 C16.907,132.967 19.823,137.635 19.657,140.051 L24.659,131.967"
       fill-opacity="0"
       stroke="#1A1919"
       stroke-width="1.4"
       stroke-linecap="round"
       stroke-linejoin="round"
       id="path40" />
    <path
       d="M79.106,121.15 L79.106,134.927 C79.106,137.11 77.319,138.896 75.138,138.896 L65.989,138.896 C63.808,138.896 62.02,137.11 62.02,134.927 L62.02,121.15 L79.106,121.15 z"
       fill-opacity="0"
       stroke="#1A1919"
       stroke-width="1"
       stroke-linecap="round"
       stroke-linejoin="round"
       id="path42" />
    <path
       d="M25.439,51.233 C25.439,51.233 19.281,46.295 16.968,54.039 C14.31,62.934 22.978,73.188 28.478,73.813"
       fill="#F8D2B5"
       id="path44" />
    <path
       d="M25.439,51.233 C25.439,51.233 19.281,46.295 16.968,54.039 C14.31,62.934 22.978,73.188 28.478,73.813"
       fill-opacity="0"
       stroke="#1A1919"
       stroke-width="1.4"
       stroke-linecap="round"
       stroke-linejoin="round"
       id="path46" />
    <path
       d="M20.359,62.483 C21.625,65.362 24.025,67.092 25.719,66.348 C27.414,65.602 27.76,62.665 26.492,59.784 C25.227,56.905 22.826,55.174 21.133,55.92 C19.437,56.665 19.094,59.602 20.359,62.483"
       fill="#DB9D88"
       id="path48" />
    <path
       d="M20.26,54.295 C20.26,54.295 23.531,52.858 26.064,58.44"
       fill-opacity="0"
       stroke="#1A1919"
       stroke-width="1.4"
       stroke-linecap="round"
       stroke-linejoin="round"
       id="path50" />
    <path
       d="M83.755,50.508 C83.755,50.508 89.788,45.419 92.294,53.102 C95.171,61.929 86.761,72.395 81.278,73.157"
       fill="#F8D2B5"
       id="path52" />
    <path
       d="M83.755,50.508 C83.755,50.508 89.788,45.419 92.294,53.102 C95.171,61.929 86.761,72.395 81.278,73.157"
       fill-opacity="0"
       stroke="#1A1919"
       stroke-width="1.4"
       stroke-linecap="round"
       stroke-linejoin="round"
       id="path54" />
    <path
       d="M89.112,61.628 C87.919,64.538 85.563,66.328 83.851,65.626 C82.138,64.921 81.72,61.994 82.915,59.083 C84.108,56.172 86.466,54.383 88.177,55.087 C89.89,55.789 90.307,58.716 89.112,61.628"
       fill="#DB9D88"
       id="path56" />
    <path
       d="M89.009,53.441 C89.009,53.441 85.702,52.085 83.31,57.728"
       fill-opacity="0"
       stroke="#1A1919"
       stroke-width="1.4"
       stroke-linecap="round"
       stroke-linejoin="round"
       id="path58" />
    <path
       d="M84.874,47.146 C84.609,53.895 83.357,68.37 79.347,77.522 C75.421,86.481 66.718,90.52 57.593,92.863 C54.635,93.481 51.843,92.863 51.843,92.863 C42.718,90.52 33.361,86.153 30.089,77.522 C26.545,68.177 24.826,53.895 24.562,47.146 C26.306,40.087 29.323,34.426 31.798,30.639 L32.802,30.604 C35.61,30.435 38.339,29.626 40.826,28.534 L41.552,29.521 C53.302,30.021 64.343,23.188 67.968,18.313 C67.968,18.313 69.428,30.437 81.469,36.771 L82.129,36.77 C83.184,39.432 84.172,42.453 84.873,45.696 L84.874,47.146"
       fill="#F8D2B5"
       id="path60" />
    <path
       d="M37.732,7.183 C37.732,7.183 45.814,12.517 55.695,12.842 C55.695,12.842 59.3,14.037 52.091,14.37 C44.881,14.706 37.276,13.904 32.705,11.689 L37.732,7.183"
       fill="#B7A293"
       id="path64" />
    <path
       d="M35.843,25.311 C35.843,25.311 27.886,33.688 24.562,47.146 C24.826,53.895 26.545,68.177 30.089,77.522 C33.361,86.153 45.856,92.863 54.718,92.863 C63.093,92.863 75.421,86.481 79.347,77.522 C83.357,68.37 84.609,53.895 84.874,47.146"
       fill-opacity="0"
       stroke="#1A1919"
       stroke-width="1.4"
       stroke-linecap="round"
       stroke-linejoin="round"
       id="path66" />
    <path
       d="M52.384,54.833 C52.384,54.833 53.075,57.46 52.614,60.167 M53.814,58.67 C53.814,58.67 51.024,62.159 50.954,63.415 C50.885,64.668 53.248,66.762 53.248,66.762"
       fill-opacity="0"
       stroke="#1A1919"
       stroke-width="1.2"
       stroke-linecap="round"
       stroke-linejoin="round"
       id="path68" />
    <path
       d="M37.894,61.178 C37.894,62.653 35.537,63.848 32.631,63.848 C29.725,63.848 27.366,62.653 27.366,61.178 C27.366,59.704 29.725,58.51 32.631,58.51 C35.537,58.51 37.894,59.704 37.894,61.178"
       fill="#EB9294"
       id="path70" />
    <path
       d="M71.376,61.178 C71.376,62.653 73.732,63.848 76.639,63.848 C79.545,63.848 81.903,62.653 81.903,61.178 C81.903,59.704 79.545,58.51 76.639,58.51 C73.732,58.51 71.376,59.704 71.376,61.178"
       fill="#EB9294"
       id="path72" />
    <path
       d="M47.858,52.135 C47.858,56.515 45.061,60.065 41.611,60.065 C38.158,60.065 35.363,56.515 35.363,52.135 C35.363,47.752 38.158,44.201 41.611,44.201 C45.061,44.201 47.858,47.752 47.858,52.135"
       fill="#FFFFFE"
       id="path74" />
    <path
       d="M61.577,52.135 C61.577,56.515 64.374,60.065 67.825,60.065 C71.277,60.065 74.073,56.515 74.073,52.135 C74.073,47.752 71.277,44.201 67.825,44.201 C64.374,44.201 61.577,47.752 61.577,52.135"
       fill="#FFFFFE"
       id="path76" />
    <path
       d="M35.23,50.655 C35.23,50.655 35.894,45.814 40.416,44.469 C45.704,42.896 47.06,48.236 47.06,48.236 C47.06,48.236 44.306,46.187 41.024,47.024 C37.93,47.812 35.23,50.655 35.23,50.655"
       fill="#D8E9F1"
       id="path78" />
    <path
       d="M74.206,50.655 C74.206,50.655 73.541,45.814 69.021,44.469 C63.733,42.896 62.376,48.236 62.376,48.236 C62.376,48.236 65.131,46.187 68.411,47.024 C71.508,47.812 74.206,50.655 74.206,50.655"
       fill="#D8E9F1"
       id="path80" />
    <path
       d="M62.608,52.066 C62.608,54.998 64.204,57.379 66.17,57.379 C68.135,57.379 69.73,54.998 69.73,52.066 C69.73,49.132 68.135,46.755 66.17,46.755 C64.204,46.755 62.608,49.132 62.608,52.066"
       fill="#1A1919"
       id="path82" />
    <path
       d="M62.376,48.236 C62.376,48.236 63.733,42.896 69.021,44.469 C73.541,45.814 74.206,50.655 74.206,50.655"
       fill-opacity="0"
       stroke="#1A1919"
       stroke-width="1.4"
       stroke-linecap="round"
       stroke-linejoin="round"
       id="path84" />
    <path
       d="M49.047,40.003 C48.725,40.359 46.983,38.993 44.771,38.698 C43.676,38.524 42.493,38.563 41.481,38.698 C40.457,38.812 39.79,39.07 39.388,39.233 C38.623,39.546 37.836,40.095 37.202,40.507 C36.561,40.912 36.024,41.196 35.541,40.83 C35.067,40.474 35.259,39.751 35.901,39.033 C36.533,38.31 37.588,37.663 38.569,37.264 C38.816,37.167 39.178,37.022 39.647,36.902 C40.113,36.773 40.705,36.691 41.27,36.646 C42.435,36.549 43.857,36.599 45.16,36.974 C46.467,37.34 47.584,38.028 48.249,38.666 C48.921,39.304 49.199,39.838 49.047,40.003"
       fill="#1A1919"
       id="path86" />
    <path
       d="M60.557,40.003 C60.404,39.837 60.683,39.304 61.354,38.665 C62.019,38.028 63.137,37.34 64.443,36.974 C65.746,36.599 67.169,36.549 68.334,36.646 C68.898,36.691 69.491,36.773 69.956,36.902 C70.426,37.022 70.787,37.167 71.034,37.264 C72.016,37.663 73.071,38.309 73.703,39.032 C74.345,39.751 74.536,40.473 74.062,40.83 C73.58,41.196 73.043,40.912 72.402,40.507 C71.768,40.095 70.98,39.546 70.216,39.233 C69.813,39.07 69.146,38.812 68.122,38.697 C67.11,38.563 65.928,38.524 64.832,38.697 C62.62,38.993 60.878,40.359 60.557,40.003"
       fill="#1A1919"
       id="path88" />
    <path
       d="M41.552,29.521 C53.302,30.021 64.343,23.188 67.968,18.313 C67.968,18.313 69.428,30.437 81.469,36.771 M52.469,20.604 C52.469,20.604 43.177,29.979 32.802,30.604 M76.167,25.843 C76.167,25.843 83.168,35.906 85.168,48.656"
       fill-opacity="0"
       stroke="#1A1919"
       stroke-width="1.4"
       stroke-linecap="round"
       stroke-linejoin="round"
       id="path90" />
    <path
       d="M46.827,52.066 C46.827,54.998 45.232,57.379 43.266,57.379 C41.302,57.379 39.707,54.998 39.707,52.066 C39.707,49.132 41.302,46.755 43.266,46.755 C45.232,46.755 46.827,49.132 46.827,52.066"
       fill="#1A1919"
       id="path92" />
    <path
       d="M46.656,50.166 C46.656,50.855 46.168,51.415 45.564,51.415 C44.964,51.415 44.475,50.855 44.475,50.166 C44.475,49.473 44.964,48.912 45.564,48.912 C46.168,48.912 46.656,49.473 46.656,50.166"
       fill="#FFFFFE"
       id="path94" />
    <path
       d="M69.539,50.166 C69.539,50.855 69.051,51.415 68.447,51.415 C67.846,51.415 67.356,50.855 67.356,50.166 C67.356,49.473 67.846,48.912 68.447,48.912 C69.051,48.912 69.539,49.473 69.539,50.166"
       fill="#FFFFFE"
       id="path96" />
    <path
       d="M47.06,48.236 C47.06,48.236 45.704,42.896 40.416,44.469 C35.894,45.814 35.23,50.655 35.23,50.655"
       fill-opacity="0"
       stroke="#1A1919"
       stroke-width="1.4"
       stroke-linecap="round"
       stroke-linejoin="round"
       id="path98" />
    <path
       d="M20.356,43.05 C20.356,41.52 26.774,35.634 54.653,35.634 C82.535,35.634 88.956,41.52 88.956,43.05 L86.443,27.177 L27.133,24.682 C27.133,24.682 22.834,27.356 22.476,29.314 C22.119,31.278 20.356,43.05 20.356,43.05"
       fill="#9BD1C4"
       id="path100" />
    <path
       d="M20.356,43.05 C20.356,41.52 26.774,35.634 54.653,35.634 C82.535,35.634 88.956,41.52 88.956,43.05 L86.443,27.177 L27.133,24.682 C27.133,24.682 22.834,27.356 22.476,29.314 C22.119,31.278 20.356,43.05 20.356,43.05 z"
       fill-opacity="0"
       stroke="#1A1919"
       stroke-width="1.4"
       stroke-linecap="round"
       stroke-linejoin="round"
       id="path102" />
    <path
       d="M54.653,0.991 C64.183,0.991 77.024,3.486 82.384,11.356 C86.514,17.418 89.317,27.542 89.317,42.015 C89.317,39.085 81.469,28.133 54.653,28.133 C26.481,28.133 19.995,39.085 19.995,42.015 C19.995,25.986 22.801,17.418 26.927,11.356 C32.288,3.486 45.13,0.991 54.653,0.991"
       fill="#009D90"
       id="path104" />
    <path
       d="M54.653,0.991 C64.083,0.991 77.027,3.758 82.387,11.821 C86.517,18.031 88.956,26.451 88.956,42.48 C88.956,39.551 82.535,28.133 54.653,28.133 C26.774,28.133 20.356,39.551 20.356,42.48 C20.356,26.451 22.798,18.031 26.924,11.821 C32.286,3.758 45.229,0.991 54.653,0.991 z"
       fill-opacity="0"
       stroke="#1A1919"
       stroke-width="1.4"
       stroke-linecap="round"
       stroke-linejoin="round"
       id="path106" />
    <path
       d="m 48.03201,78.008093 c 5.988623,3.336415 9.473895,1.387979 13.177979,-0.09852"
       fill-opacity="0"
       stroke="#1a1919"
       stroke-width="1.4"
       stroke-linecap="round"
       stroke-linejoin="round"
       id="path2026"
       sodipodi:nodetypes="cc" />
    <path
       d="m 68.644,18.93 c 0,3.299 -6.284,5.974 -14.033,5.974 -7.753,0 -14.037,-2.675 -14.037,-5.974 0,-3.297 6.284,-5.972 14.037,-5.972 7.749,0 14.033,2.675 14.033,5.972"
       fill="#9bd1c4"
       id="path108" />
  </g>
</svg>
